<?xml version="1.0" encoding="utf-8"?>
<!-- Generator: Adobe Illustrator 21.1.0, SVG Export Plug-In . SVG Version: 6.00 Build 0)  -->
<svg version="1.1" id="Layer_1" xmlns="http://www.w3.org/2000/svg" xmlns:xlink="http://www.w3.org/1999/xlink" x="0px" y="0px"
	 viewBox="0 0 194 75" style="enable-background:new 0 0 194 75;" xml:space="preserve">
<style type="text/css">
	.st0{fill:#FF0066;}
	.st1{fill:#6666CC;}
	.st2{fill:#FFCC00;}
	.st3{fill:#33CC00;}
	.st4{fill:#00CCCC;}
</style>
<path class="st0" d="M170.7,62.2L155.9,45l12.2-14.2c0.9-1.1,0.4-2.5-0.8-2.8h-11.6c-0.8,0.2-1.3,0.6-1.7,1l-11.2,13V1.9
	c0-0.9-0.8-1.8-1.8-1.8h-10.3c-0.9,0-1.8,0.8-1.8,1.8v61.4c0,0.9,0.8,1.8,1.8,1.8H141c0.9,0,1.8-0.8,1.8-1.8V48.1l12.6,16.1
	c0.3,0.4,1,0.7,1.4,0.7h12.5C170.9,65,171.7,63.4,170.7,62.2z"/>
<path class="st1" d="M79.8,7c16,0,29.2,13.5,29.2,29.4c0,16.2-13.2,29.6-29.2,29.6S50.6,52.5,50.6,36.4C50.6,20.5,63.8,7,79.8,7z
	 M79.8,47.9c6.2,0,11.1-5.2,11.1-11.5c0-6.2-4.9-11.2-11.1-11.2s-11.1,5.1-11.1,11.2C68.7,42.7,73.7,47.9,79.8,47.9z"/>
<g>
	<path class="st2" d="M0.6,28.5c-0.5-1.3,0.4-2.4,1.8-2.4h9.3c0.6,0,1.6,0.5,1.8,1.2l5.1,13.4h0.1l9.3-14.7c0.2-0.3,0.7-0.8,1.6-0.8
		h1c0.7,0,1.3,0.4,1.5,0.8l9.4,14.7h0.1l5-13.4c0.4-0.9,0.9-1.2,2-1.2h9.1c1.4,0,2.2,1.2,1.8,2.4l-13,36.4c-0.2,0.7-1.1,1.2-1.8,1.2
		h-0.4c-0.5,0-1.4-0.4-1.6-0.8L29.8,45.8h-0.1L17.3,65.3c-0.3,0.4-1.1,0.8-1.6,0.8h-0.5c-0.6,0-1.6-0.5-1.7-1.2L0.6,28.5z"/>
</g>
<g>
	<path class="st3" d="M102.1,28.5c0-1.3,1.1-2.3,2.3-2.3h5.7c1.3,0,1.8,0.7,2.2,1.5l2.2,5.4c2.4-3.5,7-8,13.3-8
		c6.7,0,11.5,2.4,9.8,5.2l-6,9.8c-0.5,0.9-1.3,1.6-2.7,1.1c-0.6-0.2-1.8-0.6-2.9-0.6c-3.7,0-7,2.8-7,7v25.2c0,1.5-0.7,2.3-2.7,2.3
		h-11.9c-1.2,0-2.3-1.1-2.3-2.3V28.5z"/>
</g>
<g>
	<path class="st4" d="M172.4,27l3-2.9c0.3-0.3,0.8-0.4,1.1-0.1c0,0,3.3,2.3,5.6,2.3c2.5,0,4.5-1.9,4.5-4.5c0-2.5-1.8-4.9-4.8-4.9
		h-7.2c-0.9,0-1.5-0.9-1.5-1.6V1c0-0.5,0.4-0.9,0.9-0.9H189c0.5,0,0.9,0.4,0.9,0.9v4c0,0.5-0.4,0.9-0.9,0.9H179v5.1h3.7
		c6.5,0,10.7,4.6,10.7,10.7c0,5.9-5,10.8-11.6,10.8c-4.9,0-8.1-2.5-9.3-3.9C171.9,27.9,171.8,27.6,172.4,27z"/>
</g>
</svg>
